<svg width="40" height="40" viewBox="0 0 40 40" fill="none" xmlns="http://www.w3.org/2000/svg">
<path d="M29.3641 28.6188C18.3575 33.8569 11.5267 29.4744 7.15412 26.8125C6.88354 26.6447 6.42366 26.8517 6.82267 27.31C8.27941 29.0763 13.0534 33.3336 19.2849 33.3336C25.5207 33.3336 29.2304 29.9311 29.6945 29.3376C30.1554 28.7491 29.8298 28.4244 29.364 28.6188H29.3641ZM32.4552 26.9118C32.1597 26.5269 30.658 26.4551 29.7129 26.5712C28.7663 26.684 27.3456 27.2624 27.4691 27.6098C27.5325 27.7399 27.6619 27.6815 28.3121 27.6231C28.9641 27.558 30.7907 27.3275 31.1713 27.825C31.5537 28.326 30.5887 30.7125 30.4125 31.0974C30.2422 31.4822 30.4775 31.5815 30.7974 31.3252C31.1128 31.0689 31.6839 30.4053 32.0671 29.4662C32.4477 28.522 32.6798 27.2048 32.4551 26.9118H32.4552Z" fill="#FF9900"/>
<path fill-rule="evenodd" clip-rule="evenodd" d="M21.9655 17.9301C21.9655 19.3046 22.0003 20.4508 21.3056 21.6713C20.7449 22.6638 19.8567 23.2741 18.8644 23.2741C17.5097 23.2741 16.7208 22.242 16.7208 20.7187C16.7208 17.7118 19.415 17.166 21.9655 17.166V17.9301ZM25.5231 26.5291C25.2899 26.7374 24.9525 26.7524 24.6896 26.6134C23.5186 25.6409 23.3101 25.1894 22.6651 24.2615C20.73 26.2363 19.3605 26.8268 16.8499 26.8268C13.8827 26.8268 11.5704 24.9958 11.5704 21.329C11.5704 18.4661 13.1236 16.516 15.3315 15.5634C17.2468 14.7198 19.9212 14.5709 21.9655 14.3378V13.8813C21.9655 13.0427 22.03 12.0503 21.5388 11.3259C21.1071 10.6759 20.2834 10.4079 19.5589 10.4079C18.2144 10.4079 17.0136 11.0976 16.7208 12.5266C16.6612 12.8443 16.4281 13.1569 16.1105 13.1717L12.6868 12.8046C12.3991 12.74 12.0816 12.5068 12.1609 12.0652C12.9499 7.91713 16.6959 6.66666 20.0501 6.66666C21.7669 6.66666 24.0096 7.12319 25.3643 8.42324C27.0811 10.0259 26.9173 12.1644 26.9173 14.4915V19.9893C26.9173 21.6416 27.6021 22.366 28.2471 23.2592C28.4753 23.5767 28.525 23.9589 28.2371 24.197C27.5177 24.7973 26.2375 25.9138 25.533 26.539L25.523 26.5291" fill="black"/>
<path d="M29.3641 28.6188C18.3575 33.8569 11.5267 29.4744 7.15412 26.8125C6.88354 26.6447 6.42366 26.8517 6.82267 27.31C8.27941 29.0763 13.0534 33.3336 19.2849 33.3336C25.5207 33.3336 29.2304 29.9311 29.6945 29.3376C30.1554 28.7491 29.8298 28.4244 29.364 28.6188H29.3641ZM32.4552 26.9118C32.1597 26.5269 30.658 26.4551 29.7129 26.5712C28.7663 26.684 27.3456 27.2624 27.4691 27.6098C27.5325 27.7399 27.6619 27.6815 28.3121 27.6231C28.9641 27.558 30.7907 27.3275 31.1713 27.825C31.5537 28.326 30.5887 30.7125 30.4125 31.0974C30.2422 31.4822 30.4775 31.5815 30.7974 31.3252C31.1128 31.0689 31.6839 30.4053 32.0671 29.4662C32.4477 28.522 32.6798 27.2048 32.4551 26.9118H32.4552Z" fill="#FF9900"/>
<path fill-rule="evenodd" clip-rule="evenodd" d="M21.9655 17.9301C21.9655 19.3046 22.0003 20.4508 21.3056 21.6713C20.7449 22.6638 19.8567 23.2741 18.8644 23.2741C17.5097 23.2741 16.7208 22.242 16.7208 20.7187C16.7208 17.7118 19.415 17.166 21.9655 17.166V17.9301ZM25.5231 26.5291C25.2899 26.7374 24.9525 26.7524 24.6896 26.6134C23.5186 25.6409 23.3101 25.1894 22.6651 24.2615C20.73 26.2363 19.3605 26.8268 16.8499 26.8268C13.8827 26.8268 11.5704 24.9958 11.5704 21.329C11.5704 18.4661 13.1236 16.516 15.3315 15.5634C17.2468 14.7198 19.9212 14.5709 21.9655 14.3378V13.8813C21.9655 13.0427 22.03 12.0503 21.5388 11.3259C21.1071 10.6759 20.2834 10.4079 19.5589 10.4079C18.2144 10.4079 17.0136 11.0976 16.7208 12.5266C16.6612 12.8443 16.4281 13.1569 16.1105 13.1717L12.6868 12.8046C12.3991 12.74 12.0816 12.5068 12.1609 12.0652C12.9499 7.91713 16.6959 6.66666 20.0501 6.66666C21.7669 6.66666 24.0096 7.12319 25.3643 8.42324C27.0811 10.0259 26.9173 12.1644 26.9173 14.4915V19.9893C26.9173 21.6416 27.6021 22.366 28.2471 23.2592C28.4753 23.5767 28.525 23.9589 28.2371 24.197C27.5177 24.7973 26.2375 25.9138 25.533 26.539L25.523 26.5291" fill="black"/>
</svg>
