<svg width="40" height="40" viewBox="0 0 40 40" fill="none" xmlns="http://www.w3.org/2000/svg">
<path fill-rule="evenodd" clip-rule="evenodd" d="M20.1939 15.4067C20.8603 15.4067 21.4093 15.064 21.4834 14.6215L22.1414 7.26477C22.1414 6.5377 21.2796 5.94077 20.1958 5.94077C19.1134 5.94077 18.2522 6.5377 18.2522 7.26477L18.9099 14.6215C18.9824 15.064 19.531 15.4067 20.1958 15.4067H20.1939ZM16.1707 17.7043C16.5052 17.1346 16.48 16.4942 16.1274 16.2093L10.0092 11.9677C9.37316 11.6039 8.41946 12.0419 7.8779 12.9697C7.33506 13.8963 7.43114 14.9313 8.06554 15.2955L14.8401 18.4129C15.2636 18.5683 15.8411 18.2696 16.173 17.7002L16.1707 17.7043ZM24.2203 17.7005C24.5541 18.2699 25.1287 18.5686 25.5525 18.4135L32.3274 15.2958C32.9657 14.9319 33.0566 13.8966 32.5183 12.9701C31.9745 12.0432 31.0188 11.6042 30.3844 11.9683L24.2659 16.2099C23.9159 16.4942 23.89 17.1349 24.2226 17.705L24.22 17.7005H24.2203ZM20.1939 24.5962C20.8603 24.5962 21.4093 24.936 21.4834 25.3789L22.1414 32.7346C22.1414 33.4639 21.2796 34.0596 20.1958 34.0596C19.1134 34.0596 18.2522 33.4639 18.2522 32.7346L18.9099 25.3789C18.9824 24.936 19.531 24.5962 20.1958 24.5962H20.1939ZM24.2203 22.2979C24.5541 21.7266 25.1287 21.4308 25.5525 21.5875L32.3274 24.7029C32.9657 25.0674 33.0566 26.1034 32.5183 27.0309C31.9745 27.9549 31.0188 28.3952 30.3844 28.0317L24.2659 23.7939C23.9159 23.5075 23.89 22.8661 24.2226 22.2966H24.22L24.2203 22.2979ZM16.1707 22.297C16.5052 22.8661 16.48 23.5075 16.1274 23.7943L10.0092 28.032C9.37316 28.3955 8.41946 27.9553 7.8779 27.0312C7.33506 26.104 7.43114 25.0681 8.06554 24.7036L14.8401 21.5881C15.2636 21.4311 15.8411 21.7272 16.173 22.2982H16.1707" fill="#FF9900"/>
</svg>
